# xmcd
# 
# Track frame offsets:
#     150
#     22609
#     35121
#     51455
#     69160
#     84943
#     97315
#     121817
#     136613
#     156842
#     170856
#     196293
#     218528
#     232717
#     265479
#     300500
#     321143
#     338335
# 
# Disc length: 4698
# 
# Revision: 2
# Processed by: cddbd v1.5.2PL0 Copyright (c) Steve Scherf et al.
# Submitted via: fre:ac v1.0.17
# 
DISCID=e8125812
DTITLE=Lightnin' Hopkins - The Texas Bluesman and Lightnin' Sam Hopkins
DYEAR=2001
DGENRE=Blues
TTITLE0=Tom Moore Blues
TTITLE1=Watch My Fingers
TTITLE2=Little Antoinette
TTITLE3=Love Is Like A Hydrant
TTITLE4=Cut Me Out Baby
TTITLE5=Take A Walk
TTITLE6=Slavery
TTITLE7=I Would If I Could
TTITLE8=Bud Russell Blues
TTITLE9=At Home Blues
TTITLE10=Meet You At The Chicken Shack
TTITLE11=Once Was A Gambler
TTITLE12=Speedin' Boogie
TTITLE13=Ice Storm Blues
TTITLE14=California Showers
TTITLE15=Burnin' In L.A.
TTITLE16=Bald Headed Woman
TTITLE17=Goin' Out
EXTD=YEAR: 2001
EXTT0=
EXTT1=
EXTT2=
EXTT3=
EXTT4=
EXTT5=
EXTT6=
EXTT7=
EXTT8=
EXTT9=
EXTT10=
EXTT11=
EXTT12=
EXTT13=
EXTT14=
EXTT15=
EXTT16=
EXTT17=
PLAYORDER=
